<?xml version="1.0" encoding="UTF-8" ?>
<svg version="1.1" width="64" height="22" xmlns="http://www.w3.org/2000/svg" shape-rendering="crispEdges">
<rect x="0" y="0" width="2" height="2" fill="#BABABA" />
<rect x="4" y="0" width="2" height="2" fill="#BABABA" />
<rect x="8" y="0" width="2" height="2" fill="#BABABA" />
<rect x="12" y="0" width="2" height="2" fill="#BABABA" />
<rect x="14" y="0" width="2" height="2" fill="#BABABA" />
<rect x="22" y="0" width="2" height="2" fill="#BABABA" />
<rect x="28" y="0" width="2" height="2" fill="#BABABA" />
<rect x="32" y="0" width="2" height="2" fill="#BABABA" />
<rect x="38" y="0" width="2" height="2" fill="#BABABA" />
<rect x="44" y="0" width="2" height="2" fill="#BABABA" />
<rect x="48" y="0" width="2" height="2" fill="#BABABA" />
<rect x="54" y="0" width="2" height="2" fill="#BABABA" />
<rect x="0" y="2" width="2" height="2" fill="#BABABA" />
<rect x="4" y="2" width="2" height="2" fill="#BABABA" />
<rect x="8" y="2" width="2" height="2" fill="#BABABA" />
<rect x="12" y="2" width="2" height="2" fill="#BABABA" />
<rect x="16" y="2" width="2" height="2" fill="#BABABA" />
<rect x="20" y="2" width="2" height="2" fill="#BABABA" />
<rect x="24" y="2" width="2" height="2" fill="#BABABA" />
<rect x="28" y="2" width="2" height="2" fill="#BABABA" />
<rect x="32" y="2" width="2" height="2" fill="#BABABA" />
<rect x="36" y="2" width="2" height="2" fill="#BABABA" />
<rect x="40" y="2" width="2" height="2" fill="#BABABA" />
<rect x="44" y="2" width="2" height="2" fill="#BABABA" />
<rect x="48" y="2" width="2" height="2" fill="#BABABA" />
<rect x="52" y="2" width="2" height="2" fill="#BABABA" />
<rect x="56" y="2" width="2" height="2" fill="#BABABA" />
<rect x="0" y="4" width="2" height="2" fill="#BABABA" />
<rect x="4" y="4" width="2" height="2" fill="#BABABA" />
<rect x="8" y="4" width="2" height="2" fill="#BABABA" />
<rect x="12" y="4" width="2" height="2" fill="#BABABA" />
<rect x="16" y="4" width="2" height="2" fill="#BABABA" />
<rect x="20" y="4" width="2" height="2" fill="#BABABA" />
<rect x="22" y="4" width="2" height="2" fill="#BABABA" />
<rect x="24" y="4" width="2" height="2" fill="#BABABA" />
<rect x="30" y="4" width="2" height="2" fill="#BABABA" />
<rect x="32" y="4" width="2" height="2" fill="#BABABA" />
<rect x="36" y="4" width="2" height="2" fill="#BABABA" />
<rect x="38" y="4" width="2" height="2" fill="#BABABA" />
<rect x="40" y="4" width="2" height="2" fill="#BABABA" />
<rect x="44" y="4" width="2" height="2" fill="#BABABA" />
<rect x="46" y="4" width="2" height="2" fill="#BABABA" />
<rect x="52" y="4" width="2" height="2" fill="#BABABA" />
<rect x="54" y="4" width="2" height="2" fill="#BABABA" />
<rect x="56" y="4" width="2" height="2" fill="#BABABA" />
<rect x="0" y="6" width="2" height="2" fill="#DDDDDD" />
<rect x="4" y="6" width="2" height="2" fill="#DDDDDD" />
<rect x="8" y="6" width="2" height="2" fill="#DDDDDD" />
<rect x="12" y="6" width="2" height="2" fill="#DDDDDD" />
<rect x="16" y="6" width="2" height="2" fill="#DDDDDD" />
<rect x="20" y="6" width="2" height="2" fill="#DDDDDD" />
<rect x="24" y="6" width="2" height="2" fill="#DDDDDD" />
<rect x="32" y="6" width="2" height="2" fill="#DDDDDD" />
<rect x="36" y="6" width="2" height="2" fill="#DDDDDD" />
<rect x="40" y="6" width="2" height="2" fill="#DDDDDD" />
<rect x="44" y="6" width="2" height="2" fill="#DDDDDD" />
<rect x="48" y="6" width="2" height="2" fill="#DDDDDD" />
<rect x="52" y="6" width="2" height="2" fill="#DDDDDD" />
<rect x="56" y="6" width="2" height="2" fill="#DDDDDD" />
<rect x="2" y="8" width="2" height="2" fill="#DDDDDD" />
<rect x="8" y="8" width="2" height="2" fill="#DDDDDD" />
<rect x="12" y="8" width="2" height="2" fill="#DDDDDD" />
<rect x="16" y="8" width="2" height="2" fill="#DDDDDD" />
<rect x="20" y="8" width="2" height="2" fill="#DDDDDD" />
<rect x="24" y="8" width="2" height="2" fill="#DDDDDD" />
<rect x="32" y="8" width="2" height="2" fill="#DDDDDD" />
<rect x="36" y="8" width="2" height="2" fill="#DDDDDD" />
<rect x="40" y="8" width="2" height="2" fill="#DDDDDD" />
<rect x="44" y="8" width="2" height="2" fill="#DDDDDD" />
<rect x="48" y="8" width="2" height="2" fill="#DDDDDD" />
<rect x="52" y="8" width="2" height="2" fill="#DDDDDD" />
<rect x="56" y="8" width="2" height="2" fill="#DDDDDD" />
<rect x="2" y="12" width="2" height="2" fill="#BABABA" />
<rect x="10" y="12" width="2" height="2" fill="#BABABA" />
<rect x="14" y="12" width="2" height="2" fill="#BABABA" />
<rect x="22" y="12" width="2" height="2" fill="#BABABA" />
<rect x="28" y="12" width="2" height="2" fill="#BABABA" />
<rect x="30" y="12" width="2" height="2" fill="#BABABA" />
<rect x="36" y="12" width="2" height="2" fill="#BABABA" />
<rect x="38" y="12" width="2" height="2" fill="#BABABA" />
<rect x="42" y="12" width="2" height="2" fill="#BABABA" />
<rect x="44" y="12" width="2" height="2" fill="#BABABA" />
<rect x="48" y="12" width="2" height="2" fill="#BABABA" />
<rect x="52" y="12" width="2" height="2" fill="#BABABA" />
<rect x="0" y="14" width="2" height="2" fill="#BABABA" />
<rect x="4" y="14" width="2" height="2" fill="#BABABA" />
<rect x="8" y="14" width="2" height="2" fill="#BABABA" />
<rect x="12" y="14" width="2" height="2" fill="#BABABA" />
<rect x="16" y="14" width="2" height="2" fill="#BABABA" />
<rect x="20" y="14" width="2" height="2" fill="#BABABA" />
<rect x="24" y="14" width="2" height="2" fill="#BABABA" />
<rect x="28" y="14" width="2" height="2" fill="#BABABA" />
<rect x="32" y="14" width="2" height="2" fill="#BABABA" />
<rect x="36" y="14" width="2" height="2" fill="#BABABA" />
<rect x="42" y="14" width="2" height="2" fill="#BABABA" />
<rect x="48" y="14" width="2" height="2" fill="#BABABA" />
<rect x="52" y="14" width="2" height="2" fill="#BABABA" />
<rect x="62" y="14" width="2" height="2" fill="#558B2F" />
<rect x="0" y="16" width="2" height="2" fill="#BABABA" />
<rect x="2" y="16" width="2" height="2" fill="#BABABA" />
<rect x="4" y="16" width="2" height="2" fill="#BABABA" />
<rect x="8" y="16" width="2" height="2" fill="#BABABA" />
<rect x="16" y="16" width="2" height="2" fill="#BABABA" />
<rect x="20" y="16" width="2" height="2" fill="#BABABA" />
<rect x="22" y="16" width="2" height="2" fill="#BABABA" />
<rect x="24" y="16" width="2" height="2" fill="#BABABA" />
<rect x="28" y="16" width="2" height="2" fill="#BABABA" />
<rect x="30" y="16" width="2" height="2" fill="#BABABA" />
<rect x="36" y="16" width="2" height="2" fill="#BABABA" />
<rect x="38" y="16" width="2" height="2" fill="#BABABA" />
<rect x="42" y="16" width="2" height="2" fill="#BABABA" />
<rect x="44" y="16" width="2" height="2" fill="#BABABA" />
<rect x="48" y="16" width="2" height="2" fill="#BABABA" />
<rect x="50" y="16" width="2" height="2" fill="#BABABA" />
<rect x="52" y="16" width="2" height="2" fill="#BABABA" />
<rect x="60" y="16" width="2" height="2" fill="#689F38" />
<rect x="62" y="16" width="2" height="2" fill="#558B2F" />
<rect x="0" y="18" width="2" height="2" fill="#DDDDDD" />
<rect x="4" y="18" width="2" height="2" fill="#DDDDDD" />
<rect x="8" y="18" width="2" height="2" fill="#DDDDDD" />
<rect x="16" y="18" width="2" height="2" fill="#DDDDDD" />
<rect x="20" y="18" width="2" height="2" fill="#DDDDDD" />
<rect x="24" y="18" width="2" height="2" fill="#DDDDDD" />
<rect x="28" y="18" width="2" height="2" fill="#DDDDDD" />
<rect x="32" y="18" width="2" height="2" fill="#DDDDDD" />
<rect x="36" y="18" width="2" height="2" fill="#DDDDDD" />
<rect x="44" y="18" width="2" height="2" fill="#DDDDDD" />
<rect x="48" y="18" width="2" height="2" fill="#DDDDDD" />
<rect x="52" y="18" width="2" height="2" fill="#DDDDDD" />
<rect x="58" y="18" width="2" height="2" fill="#7CB342" />
<rect x="60" y="18" width="2" height="2" fill="#689F38" />
<rect x="62" y="18" width="2" height="2" fill="#558B2F" />
<rect x="0" y="20" width="2" height="2" fill="#DDDDDD" />
<rect x="4" y="20" width="2" height="2" fill="#DDDDDD" />
<rect x="8" y="20" width="2" height="2" fill="#DDDDDD" />
<rect x="16" y="20" width="2" height="2" fill="#DDDDDD" />
<rect x="20" y="20" width="2" height="2" fill="#DDDDDD" />
<rect x="24" y="20" width="2" height="2" fill="#DDDDDD" />
<rect x="28" y="20" width="2" height="2" fill="#DDDDDD" />
<rect x="32" y="20" width="2" height="2" fill="#DDDDDD" />
<rect x="36" y="20" width="2" height="2" fill="#DDDDDD" />
<rect x="38" y="20" width="2" height="2" fill="#DDDDDD" />
<rect x="42" y="20" width="2" height="2" fill="#DDDDDD" />
<rect x="44" y="20" width="2" height="2" fill="#DDDDDD" />
<rect x="48" y="20" width="2" height="2" fill="#DDDDDD" />
<rect x="52" y="20" width="2" height="2" fill="#DDDDDD" />
<rect x="56" y="20" width="2" height="2" fill="#8BC34A" />
<rect x="58" y="20" width="2" height="2" fill="#7CB342" />
<rect x="60" y="20" width="2" height="2" fill="#689F38" />
<rect x="62" y="20" width="2" height="2" fill="#558B2F" />
</svg>