<?xml version="1.0" encoding="UTF-8" ?>
<svg version="1.1" width="5" height="6" xmlns="http://www.w3.org/2000/svg" shape-rendering="crispEdges">
<rect x="3" y="0" width="1" height="1" fill="#23C21C" />
<rect x="4" y="0" width="1" height="1" fill="#23C21C" />
<rect x="0" y="1" width="1" height="1" fill="#25AD1E" />
<rect x="1" y="1" width="1" height="1" fill="#25AD1E" />
<rect x="3" y="1" width="1" height="1" fill="#23C21C" />
<rect x="1" y="2" width="1" height="1" fill="#25AD1E" />
<rect x="2" y="2" width="1" height="1" fill="#23C21C" />
<rect x="2" y="3" width="1" height="1" fill="#23C21C" />
<rect x="1" y="4" width="1" height="1" fill="#573D35" />
<rect x="2" y="4" width="1" height="1" fill="#573D35" />
<rect x="3" y="4" width="1" height="1" fill="#6D4C41" />
<rect x="0" y="5" width="1" height="1" fill="#573D35" />
<rect x="1" y="5" width="1" height="1" fill="#573D35" />
<rect x="2" y="5" width="1" height="1" fill="#6D4C41" />
<rect x="3" y="5" width="1" height="1" fill="#6D4C41" />
<rect x="4" y="5" width="1" height="1" fill="#6D4C41" />
</svg>